<?xml version="1.0" encoding="utf-8"?>
<svg version="1.1" xmlns:xlink="http://www.w3.org/1999/xlink" width="19px" height="19px" xmlns="http://www.w3.org/2000/svg">
  <g transform="matrix(1 0 0 1 -132 -183 )">
    <path d="M 14.372393078606008 9.500001907348633  C 14.372393078606008 6.803583145141602  12.197936531557605 4.628640174865723  9.502119637906896 4.628640174865723  C 6.806302267525463 4.628640174865723  4.63184619720778 6.803582191467285  4.63184619720778 9.500001907348633  C 4.63184619720778 12.196420669555664  6.806302267525463 14.371362686157223  9.502119637906896 14.371362686157223  C 12.197936531557605 14.371362686157223  14.372393078606008 12.196419715881344  14.372393078606008 9.500001907348633  Z M 9.502119637906896 12.667020797729494  C 7.76001113720595 12.667020797729494  6.335806228706132 11.246737480163574  6.335806228706132 9.500000000000004  C 6.335806228706132 7.753263473510742  7.7557730010765455 6.332980155944824  9.502120591368342 6.332980155944824  C 11.248467228198688 6.332980155944824  12.66843352383838 7.753263473510742  12.66843352383838 9.500000000000004  C 12.66843352383838 11.246737480163574  11.24422909206929 12.667020797729494  9.502120591368342 12.667020797729494  Z M 14.571612173608502 3.29314947128296  C 15.198940225367611 3.29314947128296  15.70758521012026 3.801908016204835  15.70758521012026 4.429376125335693  C 15.70758521012026 5.061084270477295  15.198940225367611 5.565602779388428  14.571612173608502 5.565602779388428  C 13.940045032258546 5.565602779388428  13.435639137096754 5.056844711303712  13.435639137096754 4.429376125335693  C 13.435639137096754 3.801908016204835  13.944284121849396 3.29314947128296  14.571612173608502 3.29314947128296  Z M 18.93323967609353 5.582561969757081  C 18.86118087381775 4.0605268478393555  18.513607945057178 2.7123174667358394  17.39882844957678 1.6015286445617676  C 16.288286136764345 0.49073958396911666  14.940378643400434 0.14308810234069824  13.418683732194802 0.06677436828613237  C 11.850362649335583 -0.022258281707763672  7.149637536887353 -0.022258281707763672  5.5813164540281415 0.06677436828613237  C 4.063859678951905 0.13884854316711426  2.7159507553958266 0.4865000247955322  1.601171140732754 1.5972888469696045  C 0.4863917346393723 2.708077430725097  0.14305624180995435 4.0562872886657715  0.0667596274326816 5.578322410583496  C -0.022253205419768423 7.146993637084961  -0.022253205419768423 11.848768234252931  0.0667596274326816 13.417439460754393  C 0.13881762894982694 14.939476013183594  0.48639155586535116 16.287685394287113  1.601171140732754 17.398471832275394  C 2.7159507553958266 18.509260177612305  4.059621066091778 18.856914520263672  5.5813164540281415 18.933225631713864  C 7.149637536887353 19.022258758544925  11.850362649335583 19.022258758544925  13.418683732194802 18.933225631713864  C 14.940379596861884 18.861152648925785  16.288288043687242 18.513500213623043  17.39882844957678 17.398471832275394  C 18.50937076238922 16.287681579589844  18.85694369114979 14.939472198486325  18.93323967609353 13.417438507080075  C 19.022252929809817 11.848767280578613  19.022252929809817 7.151232719421387  18.93323967609353 5.582561016082764  Z M 17.288621654829132 9.500001907348633  C 17.288621654829132 10.882127761840824  17.403067539167633 13.854125976562504  16.907137916264645 15.100582122802734  C 16.576519438944576 15.931552886962894  15.936475071874364 16.571741104125973  15.101450699392515 16.906673431396484  C 13.8510327320037 17.402713775634762  10.883937941074713 17.288242340087894  9.502119637906896 17.288242340087894  C 8.120301334739075 17.288242340087894  5.1489688844114045 17.398471832275394  3.902788338055915 16.906673431396484  C 3.0720018633381003 16.575981140136722  2.4319574962678883 15.935792922973633  2.0970996909916133 15.100582122802734  C 1.6011709023673923 13.849884033203125  1.7156160716098092 10.882127761840824  1.7156160716098092 9.500001907348633  C 1.7156160716098092 8.117875099182134  1.6054097535928815 5.145877838134766  2.0970996909916133 3.8994202613830566  C 2.427718645042399 3.0684485435485853  3.067763250477973 2.4282612800598145  3.902788338055915 2.0933284759521484  C 5.153207020540809 1.5972890853881838  8.120301334739075 1.7117598056793213  9.502119637906896 1.7117598056793213  C 10.883937941074713 1.7117598056793213  13.855270868133108 1.6015286445617676  15.101450699392515 2.0933284759521484  C 15.932236935744967 2.4240212440490723  16.57228034935373 3.064208507537842  16.907137916264645 3.8994202613830566  C 17.403067539167633 5.150117874145508  17.288621654829132 8.117874145507814  17.288621654829132 9.500001907348633  Z " fill-rule="nonzero" fill="#4b4b4b" stroke="none" transform="matrix(1 0 0 1 132 183 )" />
  </g>
</svg>