<?xml version="1.0" encoding="utf-8"?>
<svg version="1.1" xmlns:xlink="http://www.w3.org/1999/xlink" width="27px" height="19px" xmlns="http://www.w3.org/2000/svg">
  <g transform="matrix(1 0 0 1 -205 -184 )">
    <path d="M 26.43580949570014 2.9728565216064453  C 26.125287781268096 1.8026742935180664  25.210379135784834 0.881075382232666  24.04872372355945 0.5683174133300781  C 21.94314038756744 0  13.499999761777776 0  13.499999761777776 0  C 13.499999761777776 0  5.056907256877105 0  2.9512757999961035 0.5683178901672363  C 1.7896213406596142 0.8811254501342772  0.8747138862874625 1.8026747703552246  0.5641912189665266 2.9728574752807617  C 0 5.093879699707032  0 9.51919841766357  0 9.51919841766357  C 0 9.51919841766357  0 13.94451713562012  0.5641912189665266 16.06554222106934  C 0.8747138862874625 17.2357234954834  1.7896213406596142 18.11892700195313  2.9512757999961035 18.43168449401855  C 5.056907256877105 19  13.499999761777776 19  13.499999761777776 19  C 13.499999761777776 19  21.943092743122897 19  24.04872372355945 18.43168258666992  C 25.210379135784834 18.11892509460449  26.125283969712534 17.23572158813477  26.43580949570014 16.0655403137207  C 26.999999761777776 13.94451713562012  26.999999761777776 9.51919841766357  26.999999761777776 9.51919841766357  C 26.999999761777776 9.51919841766357  26.999999761777776 5.093880653381348  26.43580949570014 2.97285795211792  Z M 10.738616374626215 13.537054061889647  L 10.738616374626215 5.501340866088871  L 17.795407529050404 9.51929664611816  L 10.738618280404003 13.537055969238281  Z " fill-rule="nonzero" fill="#4b4b4b" stroke="none" transform="matrix(1 0 0 1 205 184 )" />
  </g>
</svg>