<?xml version="1.0" encoding="utf-8"?>
<svg version="1.1" xmlns:xlink="http://www.w3.org/1999/xlink" width="23px" height="19px" xmlns="http://www.w3.org/2000/svg">
  <g transform="matrix(1 0 0 1 -93 -183 )">
    <path d="M 20.63584487767254 4.735139846801758  C 20.650443700504606 4.9429426193237305  20.650443700504606 5.150791168212891  20.650443700504606 5.358593940734863  C 20.650443700504606 11.696846008300778  15.907437120007044 19.000000953674316  7.238605021756978 19.000000953674316  C 4.567898998208729 19.000000953674316  2.08694415137998 18.213248252868656  0 16.847681999206547  C 0.3794565856137327 16.892184257507328  0.7442685219685561 16.907032966613766  1.1383248094378893 16.907032966613766  C 3.3419762120435093 16.907032966613766  5.370565624380862 16.150025367736816  6.99050004361995 14.858614921569828  C 4.918155887103415 14.814066886901855  3.1814697966494987 13.433604240417477  2.5831079296177832 11.533591270446777  C 2.875011485907495 11.578095436096188  3.166870036192329 11.607793807983398  3.4733731185329346 11.607793807983398  C 3.8965838037085927 11.607793807983398  4.319839494889128 11.548395156860346  4.713850659150446 11.44454002380371  C 2.553953649114596 10.999190330505368  0.933974458276906 9.069521903991697  0.933974458276906 6.739054679870608  C 0.933974458276906 6.739054679870608  0.933974458276906 6.679701805114748  0.933974458276906 6.679701805114748  C 1.5614906058118077 7.035953521728517  2.291249379332949 7.2586059570312464  3.0646726506172426 7.288259506225588  C 1.7949955890853913 6.427304267883301  0.9631739791912454 4.957790374755859  0.9631739791912454 3.2952790260314946  C 0.9631739791912454 2.4046707153320312  1.1966338392568137 1.588263988494873  1.6052897699801796 0.8757591247558594  C 3.9257383186180546 3.7851319313049316  7.413711197608159 5.685100555419922  11.324849755769042 5.892948150634766  C 11.251896897113177 5.53669548034668  11.208096678116569 5.1656389236450195  11.208096678116569 4.794536590576171  C 11.208096678116569 2.1523194313049316  13.309640824359986 0  15.921947806079558 0  C 17.279177017911906 0  18.505056204509895 0.5789046287536621  19.366122341323262 1.5140619277954102  C 20.431448231272157 1.3062596321105957  21.453020783479538 0.9054584503173828  22.3578852640393 0.35625267028808594  C 22.007582900327193 1.4695591926574707  21.263314847171188 2.4047164916992188  20.28554251396042 2.998425006866455  C 21.234162207511922 2.8945693969726562  22.15358050489889 2.6273226737976074  23.000000937625106 2.2562665939331055  C 22.35797527604906 3.2062273025512704  21.555263175059498 4.052287578582764  20.63584487767254 4.735138893127441  Z " fill-rule="nonzero" fill="#4b4b4b" stroke="none" transform="matrix(1 0 0 1 93 183 )" />
  </g>
</svg>