<?xml version="1.0" encoding="utf-8"?>
<svg version="1.1" xmlns:xlink="http://www.w3.org/1999/xlink" width="15px" height="19px" xmlns="http://www.w3.org/2000/svg">
  <g transform="matrix(1 0 0 1 -167 -184 )">
    <path d="M 15.000000000000004 6.246949346135727  C 15.000000000000004 2.466802129424459  11.648438140670777 0  7.968750091742832 0  C 3.96093756574903 0  0 2.6038465729609617  0 6.817966668778135  C 0 9.497949600013895  1.5468750336390382 11.020667228765708  2.484375094800927 11.020667228765708  C 2.8710938837916293 11.020667228765708  3.093750311925628 9.969992684815322  3.093750311925628 9.673062341897095  C 3.093750311925628 9.31903074355183  2.1679689908249333 8.565285588845262  2.1679689908249333 7.092055555851139  C 2.1679689908249333 4.031393932683235  4.558594165136315 1.861521907758402  7.652344477061944 1.861521907758402  C 10.312500061161883 1.861521907758402  12.281250348622766 3.3347509870781127  12.281250348622766 6.041381011900752  C 12.281250348622766 8.062788819040883  11.449219681954265 11.85435509474454  8.753907266051865 11.85435509474454  C 7.781250740058844 11.85435509474454  6.949219584095248 11.169132400224825  6.949219584095248 10.186980316461291  C 6.949219584095248 8.74801246723501  7.980469198775353 7.354725622350353  7.980469198775353 5.87007581510803  C 7.980469198775353 3.3499790216726018  4.312500746175033 3.806794071879545  4.312500746175033 6.852228375708768  C 4.312500746175033 7.49176958904965  4.394532048927162 8.19983373941459  4.687500428133216 8.78227322049123  C 4.148438140670776 11.043507730936522  3.046875596328408 14.412519948108068  3.046875596328408 16.742276918740213  C 3.046875596328408 17.461761320190558  3.1523443792029227 18.169824516881086  3.2226568195700813 18.889308918331444  C 3.3554693700286395 19.0339679752117  3.2890629724755844 19.018741609547423  3.4921879633013018 18.94641112743289  C 5.460938006114623 16.31972476755692  5.390625810395016 15.805806792992724  6.2812505443408035 12.368273069308737  C 6.7617192538210515 13.259063144389016  8.00390692354529 13.738719412022578  8.988282556570832 13.738719412022578  C 13.136720207946505 13.738719412022578  15.000000000000004 9.798687964859806  15.000000000000004 6.246949346135727  Z " fill-rule="nonzero" fill="#4b4b4b" stroke="none" transform="matrix(1 0 0 1 167 184 )" />
  </g>
</svg>