<?xml version="1.0" encoding="utf-8"?>
<svg version="1.1" xmlns:xlink="http://www.w3.org/1999/xlink" width="10px" height="19px" xmlns="http://www.w3.org/2000/svg">
  <g transform="matrix(1 0 0 1 -60 -184 )">
    <path d="M 6.620962048641257 10.6875  L 9.34468648832739 10.6875  L 9.86324859556037 7.248945236206055  L 6.620962048641257 7.248945236206055  C 6.620962048641257 7.248945236206055  6.620962048641257 5.017559051513673  6.620962048641257 5.017559051513673  C 6.620962048641257 4.076836585998535  7.073883050646046 3.159863710403442  8.526001087302056 3.159863710403442  C 8.526001087302056 3.159863710403442  10.00000011714597 3.159863710403442  10.00000011714597 3.159863710403442  C 10.00000011714597 3.159863710403442  10.00000011714597 0.2323046922683716  10.00000011714597 0.2323046922683716  C 10.00000011714597 0.2323046922683716  8.662388987791328 0  7.383487670808199 0  C 4.713369227796246 0  2.9680554415334766 1.646914124488831  2.9680554415334766 4.628281116485596  C 2.9680554415334766 4.628281116485596  2.9680554415334766 7.248945236206055  2.9680554415334766 7.248945236206055  L 0 7.248945236206055  L 0 10.6875  L 2.9680554415334766 10.6875  L 2.9680554415334766 19  L 6.620962048641257 19  L 6.620962048641257 10.6875  Z " fill-rule="nonzero" fill="#4b4b4b" stroke="none" transform="matrix(1 0 0 1 60 184 )" />
  </g>
</svg>