<?xml version="1.0" encoding="utf-8"?>
<svg version="1.1" xmlns:xlink="http://www.w3.org/1999/xlink" width="24px" height="20px" xmlns="http://www.w3.org/2000/svg">
  <g transform="matrix(1 0 0 1 -386 -18 )">
    <path d="M 23 7.142938593912858  C 23.552291870117188 7.142938593912858  24 7.622622155880213  24 8.214361058945078  C 24 8.214361058945078  24 8.928641566980517  24 8.928641566980517  C 24 9.520379107662132  23.552291870117188 10.000063350821112  23 10.000063350821112  C 23 10.000063350821112  22.666666666666664 10.000063350821112  22.666666666666664 10.000063350821112  C 22.666666666666664 10.000063350821112  21.578623453776043 18.16018861378663  21.578623453776043 18.16018861378663  C 21.437876383463546 19.215853072961004  20.59404118855795 20.000000000000004  19.59874979654948 20.000000000000004  C 19.59874979654948 20.000000000000004  4.401249885559082 20.000000000000004  4.401249885559082 20.000000000000004  C 3.405958493550618 20.000000000000004  2.562124729156495 19.215853072961004  2.4213333129882812 18.16018861378663  C 2.4213333129882812 18.16018861378663  1.3333333333333333 10.000063350821112  1.3333333333333333 10.000063350821112  C 1.3333333333333333 10.000063350821112  1 10.000063350821112  1 10.000063350821112  C 0.4477083285649618 10.000063350821112  0 9.520379107662132  0 8.928641566980517  C 0 8.928641566980517  0 8.214361058945078  0 8.214361058945078  C 0 7.622622155880213  0.4477083285649618 7.142938593912858  1 7.142938593912858  C 1 7.142938593912858  3.8058748245239253 7.142938593912858  3.8058748245239253 7.142938593912858  C 3.8058748245239253 7.142938593912858  8.255041122436523 0.588471226840422  8.255041122436523 0.588471226840422  C 8.688166300455729 -0.049560777858165324  9.521999359130861 -0.19067609426792978  10.11758295694987 0.2733833159958705  C 10.713124593098959 0.7374430668554844  10.844790140787762 1.6308752692495045  10.411666234334309 2.268951210807895  C 10.411666234334309 2.268951210807895  7.103208541870117 7.142938593912858  7.103208541870117 7.142938593912858  L 16.89679209391276 7.142938593912858  C 16.89679209391276 7.142938593912858  13.588333129882812 2.2689062521606544  13.588333129882812 2.2689062521606544  C 13.155208587646484 1.6308752692495045  13.286916097005209 0.7373984488040551  13.882457733154295 0.27333903854025476  C 14.477916717529295 -0.19072037172354492  15.311874389648441 -0.04965001396102235  15.74500020345052 0.5884266087889926  C 15.74500020345052 0.5884266087889926  20.194126129150387 7.142938593912858  20.194126129150387 7.142938593912858  C 20.194126129150387 7.142938593912858  23 7.142938593912858  23 7.142938593912858  Z M 12 17.14287524309175  C 12.552290598551433 17.14287524309175  13 16.66319099993277  13 16.071453459251156  C 13 16.071453459251156  13 11.071485134661707  13 11.071485134661707  C 13 10.479747593980091  12.552290598551433 10.000063350821112  12 10.000063350821112  C 11.447708129882812 10.000063350821112  11 10.479747593980091  11 11.071485134661707  C 11 11.071485134661707  11 16.071453459251156  11 16.071453459251156  C 11 16.66319099993277  11.447708129882812 17.14287524309175  12 17.14287524309175  Z M 16.666666666666664 17.14287524309175  C 17.218958536783852 17.14287524309175  17.666666666666668 16.66319099993277  17.666666666666668 16.071453459251156  C 17.666666666666668 16.071453459251156  17.666666666666668 11.071485134661707  17.666666666666668 11.071485134661707  C 17.666666666666668 10.479747593980091  17.218958536783852 10.000063350821112  16.666666666666664 10.000063350821112  C 16.114374796549477 10.000063350821112  15.666666666666668 10.479747593980091  15.666666666666668 11.071485134661707  C 15.666666666666668 11.071485134661707  15.666666666666668 16.071453459251156  15.666666666666668 16.071453459251156  C 15.666666666666668 16.66319099993277  16.114374796549477 17.14287524309175  16.666666666666664 17.14287524309175  Z M 7.333333333333334 17.14287524309175  C 7.885624567667643 17.14287524309175  8.333333333333332 16.66319099993277  8.333333333333332 16.071453459251156  C 8.333333333333332 16.071453459251156  8.333333333333332 11.071485134661707  8.333333333333332 11.071485134661707  C 8.333333333333332 10.479747593980091  7.885624567667643 10.000063350821112  7.333333333333334 10.000063350821112  C 6.781041463216146 10.000063350821112  6.333333333333334 10.479747593980091  6.333333333333334 11.071485134661707  C 6.333333333333334 11.071485134661707  6.333333333333334 16.071453459251156  6.333333333333334 16.071453459251156  C 6.333333333333334 16.66319099993277  6.781041463216146 17.14287524309175  7.333333333333334 17.14287524309175  Z " fill-rule="nonzero" fill="#444444" stroke="none" transform="matrix(1 0 0 1 386 18 )" />
  </g>
</svg>