<?xml version="1.0" encoding="utf-8"?>
<svg version="1.1" xmlns:xlink="http://www.w3.org/1999/xlink" width="12px" height="7px" xmlns="http://www.w3.org/2000/svg">
  <g transform="matrix(1 0 0 1 -11 -46 )">
    <path d="M 1.461257648822725 0.2606199001666526  C 1.461257648822725 0.2606199001666526  6.002232982954441 4.889820857649194  6.002232982954441 4.889820857649194  C 6.002232982954441 4.889820857649194  10.539634962853079 0.25697523998509847  10.539634962853079 0.25697523998509847  C 10.875474048518921 -0.08565841332836861  11.418532789345257 -0.08565841332836861  11.750799489954641 0.25697523998509847  C 12.083068128917294 0.5996088932985545  12.083066190564027 1.1536545904044329  11.750799489954641 1.4962882437179  C 11.750799489954641 1.4962882437179  6.609601439033456 6.7451466918514855  6.609601439033456 6.7451466918514855  C 6.284481446890247 7.0768443870509925  5.762857985579302 7.084135684983388  5.427019869090082 6.770661290691663  C 5.427019869090082 6.770661290691663  0.25009312172115433 1.4999338926840973  0.25009312172115433 1.4999338926840973  C 0.08217357888823165 1.3286170660273637  0 1.1026253927240688  0 0.8802773908176956  C 0 0.6579293889113134  0.08217357888823165 0.43193672682338613  0.25009312172115433 0.2606199001666526  C 0.5859322073869997 -0.08201375314680344  1.1289919173899685 -0.08201375314680344  1.461257648822725 0.2606199001666526  Z " fill-rule="nonzero" fill="#4b4b4b" stroke="none" transform="matrix(1 0 0 1 11 46 )" />
  </g>
</svg>