<?xml version="1.0" encoding="utf-8"?>
<svg version="1.1" xmlns:xlink="http://www.w3.org/1999/xlink" width="18px" height="18px" xmlns="http://www.w3.org/2000/svg">
  <g transform="matrix(1 0 0 1 -51 -19 )">
    <path d="M 17.75520372390747 15.562152385711665  C 17.75520372390747 15.562152385711665  14.24986982345581 12.057416439056396  14.24986982345581 12.057416439056396  C 14.091655254364014 11.89922833442688  13.877185821533203 11.811346292495728  13.652169227600098 11.811346292495728  C 13.652169227600098 11.811346292495728  13.079080581665039 11.811346292495728  13.079080581665039 11.811346292495728  C 14.049463748931885 10.570451974868774  14.626070022583008 9.009666681289673  14.626070022583008 7.31178617477417  C 14.626070022583008 3.2727273702621464  11.352783679962156 0  7.313035011291504 0  C 3.2732856273651123 0  0 3.2727273702621464  0 7.31178617477417  C 0 11.350844621658325  3.273286342620849 14.62357234954834  7.313035011291504 14.62357234954834  C 9.011205196380615 14.62357234954834  10.572257280349731 14.047064781188965  11.813363313674927 13.076847553253174  C 11.813363313674927 13.076847553253174  11.813363313674927 13.649838924407959  11.813363313674927 13.649838924407959  C 11.813363313674927 13.87481689453125  11.901260375976562 14.08924913406372  12.05947494506836 14.2474365234375  C 12.05947494506836 14.2474365234375  15.5648102760315 17.75217247009278  15.5648102760315 17.75217247009278  C 15.895302772521974 18.082609176635746  16.429716110229496 18.082609176635746  16.756693840026855 17.75217247009278  C 16.756693840026855 17.75217247009278  17.751688957214355 16.757347583770756  17.751688957214355 16.757347583770756  C 18.082182884216312 16.42691087722779  18.082182884216312 15.892587661743164  17.75520372390747 15.5621509552002  Z M 11.813363313674927 7.31178617477417  C 11.813363313674927 9.797089576721191  9.802278757095337 11.811346292495728  7.313035011291504 11.811346292495728  C 4.827306032180786 11.811346292495728  2.812705636024474 9.800605058670044  2.812705636024474 7.31178617477417  C 2.812705636024474 4.826481342315674  4.823790192604065 2.812225341796875  7.313035011291504 2.812225341796875  C 9.798763275146484 2.812225341796875  11.813363313674927 4.822966575622559  11.813363313674927 7.31178617477417  Z " fill-rule="nonzero" fill="#444444" stroke="none" transform="matrix(1 0 0 1 51 19 )" />
  </g>
</svg>