<?xml version="1.0" encoding="utf-8"?>
<svg version="1.1" xmlns:xlink="http://www.w3.org/1999/xlink" width="18px" height="18px" xmlns="http://www.w3.org/2000/svg">
  <g transform="matrix(1 0 0 1 -354 -21 )">
    <path d="M 17.98083747338535 0.6839488636363633  C 18.010645848119225 0.8586647727272698  17.982966643009206 1.0269886363636367  17.89779985805535 1.1889204545454533  L 9.72178850248406 17.552556818181813  C 9.577004968062454 17.850852272727273  9.33427963094391 18  8.993612491128488 18  C 8.951029098651532 18  8.887154009936125 17.991477272727273  8.80198722498227 17.974431818181813  C 8.614620298083764 17.931818181818187  8.463449254790646 17.8359375  8.348474095102915 17.686789772727273  C 8.233498935415184 17.537642045454547  8.176011355571347 17.369318181818187  8.176011355571347 17.181818181818187  L 8.176011355571347 9.818181818181817  L 0.8176011355571404 9.818181818181817  C 0.630234208658635 9.818181818181817  0.46202980837472296 9.760653409090907  0.31298793470546116 9.645596590909093  C 0.16394606103619935 9.530539772727273  0.06813342796311872 9.379261363636363  0.025550035486162415 9.191761363636367  C -0.01703335699079389 9.004261363636363  0 8.82528409090909  0.07665010645848724 8.654829545454547  C 0.1533002129169745 8.484375  0.2767920511000739 8.35653409090909  0.4471256210077854 8.271306818181817  L 6.597413429587505 5.1939788628235775  L 16.79914833215048 0.08948863636363669  C 16.9098651525905 0.029829545454543194  17.033356990773598 0  17.16962384669978 0  C 17.39957416607524 0  17.591199432221458 0.08096590909090651  17.744499645138376 0.24289772727272663  C 17.872249822569188 0.3622159090909065  17.95102909865153 0.5092329545454533  17.98083747338535 0.6839488636363633  Z " fill-rule="nonzero" fill="#484747" stroke="none" transform="matrix(1 0 0 1 354 21 )" />
  </g>
</svg>